<svg width="14" height="16" viewBox="0 0 14 16" fill="none" xmlns="http://www.w3.org/2000/svg">
<path d="M9.2078 3.09953C9.49134 2.77274 9.70753 2.39316 9.84396 1.98258C9.98039 1.57201 10.0344 1.13853 10.0028 0.707031C9.13233 0.777296 8.3243 1.1867 7.7528 1.84703C7.47913 2.16351 7.27174 2.53169 7.14291 2.92976C7.01408 3.32784 6.96644 3.74771 7.0028 4.16453C7.42741 4.16807 7.84714 4.07385 8.2295 3.88917C8.61186 3.7045 8.9466 3.43431 9.2078 3.09953V3.09953ZM11.0978 8.67953C11.1028 8.10483 11.2542 7.54089 11.5377 7.04093C11.8211 6.54097 12.2273 6.12147 12.7178 5.82203C12.4082 5.37596 11.999 5.00816 11.5225 4.74779C11.046 4.48742 10.5154 4.34165 9.9728 4.32203C8.8028 4.20203 7.7228 5.00453 7.1003 5.00453C6.4778 5.00453 5.6003 4.33703 4.6253 4.35203C3.9879 4.37303 3.36682 4.55887 2.82264 4.89142C2.27846 5.22398 1.82976 5.69189 1.5203 6.24953C0.200302 8.54453 1.1828 11.957 2.5028 13.8095C3.1028 14.717 3.8528 15.7445 4.8428 15.707C5.8328 15.6695 6.1553 15.092 7.3028 15.092C8.4503 15.092 8.8028 15.707 9.7778 15.6845C10.7528 15.662 11.4428 14.7545 12.0728 13.847C12.5191 13.1882 12.8677 12.4682 13.1078 11.7095C12.5134 11.456 12.0063 11.034 11.6491 10.4955C11.2919 9.95703 11.1002 9.32571 11.0978 8.67953V8.67953Z" fill="white"/>
</svg>
