<svg width="13" height="12" viewBox="0 0 13 12" fill="none" xmlns="http://www.w3.org/2000/svg">
<path d="M1.66846 6.95608H10.046L6.38596 10.6161C6.09346 10.9086 6.09346 11.3886 6.38596 11.6811C6.67846 11.9736 7.15096 11.9736 7.44346 11.6811L12.386 6.73858C12.6785 6.44608 12.6785 5.97358 12.386 5.68108L7.45096 0.731083C7.31083 0.590643 7.1206 0.511719 6.92221 0.511719C6.72382 0.511719 6.53358 0.590643 6.39346 0.731083C6.10096 1.02358 6.10096 1.49608 6.39346 1.78858L10.046 5.45608H1.66846C1.25596 5.45608 0.918457 5.79358 0.918457 6.20608C0.918457 6.61858 1.25596 6.95608 1.66846 6.95608Z" fill="white"/>
</svg>
