<svg width="114" height="53" viewBox="0 0 114 53" fill="none" xmlns="http://www.w3.org/2000/svg">
<g clip-path="url(#clip0_1_1238)">
<path d="M40.5542 29.6474C40.5542 31.3173 42.0024 32.4666 44.2289 32.4666C47.4964 32.4666 49.3879 30.7967 49.3879 26.6015V25.6738C48.053 26.0088 46.9037 26.1583 45.8626 26.3438C42.188 26.9004 40.5542 27.8281 40.5542 29.6474Z" fill="white" fill-opacity="0.59"/>
<path d="M22.0774 18.6953C19.887 18.6953 17.1812 19.9219 16.8823 23.4471H27.0508C26.9375 20.4425 24.7883 18.6953 22.0774 18.6953Z" fill="white" fill-opacity="0.59"/>
<path d="M89.9485 18.6953C87.7581 18.6953 85.0523 19.9219 84.7534 23.4471H94.9219C94.8086 20.4425 92.6594 18.6953 89.9485 18.6953Z" fill="white" fill-opacity="0.59"/>
<path d="M106.833 6.65559L7.44612 0.800832C3.13236 0.548294 -0.284637 4.39821 0.478131 8.65013L7.35335 46.9947C7.96666 50.422 11.1105 52.8031 14.5739 52.4629L107.085 43.4746C110.507 43.1396 113.12 40.2638 113.12 36.8262V13.3247C113.12 9.78912 110.363 6.86174 106.833 6.65559ZM31.5403 26.6782H16.8828C16.9962 30.2756 19.5937 32.0949 22.2995 32.0949C24.6393 32.0949 26.3813 31.2033 27.1595 29.2758L31.2053 30.0901C30.056 33.2803 27.1235 35.7696 22.3356 35.7696C15.8056 35.7696 12.3886 30.9817 12.3886 25.3434C12.3886 19.7051 16.2849 15.247 22.0727 15.247C28.3088 15.247 31.9062 19.9989 31.5352 26.6782H31.5403ZM50.1663 35.2852C50.0168 34.4296 49.8673 33.8009 49.7952 32.4299C48.5686 34.6564 46.1978 35.7696 43.2653 35.7696C38.9258 35.7696 35.8798 33.3215 35.8798 29.7551C35.8798 25.7866 39.4051 24.1889 44.7135 23.4829L47.0534 23.1479C48.8727 22.8489 49.3159 22.2202 49.3159 21.107C49.3159 19.2876 47.7594 18.36 45.3062 18.36C42.7087 18.36 41.0388 19.5453 40.9254 21.9573L36.622 21.5141C37.1425 17.69 40.4822 15.0924 45.234 15.0924C49.9859 15.0924 53.8461 17.0612 53.7327 23.4416C53.7327 24.4415 53.6606 26.6319 53.6606 28.4512C53.6606 30.9765 53.8822 33.6102 54.2533 35.28H50.1714L50.1663 35.2852ZM67.4986 35.7696C62.6386 35.7696 59.4071 33.136 58.701 29.5696L62.8189 28.714C63.2622 31.126 64.8238 32.4248 67.6429 32.4248C70.091 32.4248 71.7248 31.461 71.7248 29.9406C71.7248 28.4202 70.2765 27.7142 68.1635 27.2709L65.1588 26.6422C61.7057 25.9361 59.1082 24.4879 59.1082 20.8905C59.1082 17.2931 62.8189 15.2522 67.2719 15.2522C71.096 15.2522 74.5851 17.1797 75.585 20.705L71.5753 21.5193C71.1321 19.6639 69.4622 18.6228 66.9729 18.6228C64.9681 18.6228 63.2622 19.401 63.2622 20.6637C63.2622 21.9264 64.2259 22.6325 66.1586 23.0396L68.8695 23.5963C72.8792 24.4106 76.0334 25.6372 76.0334 29.4252C76.0334 33.5071 72.1371 35.7696 67.4986 35.7696ZM99.4112 26.6782H84.7537C84.8671 30.2756 87.4646 32.0949 90.1703 32.0949C92.5102 32.0949 94.2522 31.2033 95.0304 29.2758L99.0762 30.0901C97.9269 33.2803 94.9943 35.7696 90.2064 35.7696C83.6765 35.7696 80.2595 30.9817 80.2595 25.3434C80.2595 19.7051 84.1558 15.247 89.9436 15.247C96.1797 15.247 99.7771 19.9989 99.406 26.6782H99.4112ZM106.843 35.2852H103.617V32.0589H106.843V35.2852Z" fill="white" fill-opacity="0.59"/>
<path d="M22.0776 15.248C16.2899 15.248 12.3936 19.4433 12.3936 25.3444C12.3936 31.2456 15.8054 35.7706 22.3405 35.7706C27.1284 35.7706 30.0609 33.2813 31.2102 30.0911L27.1644 29.2768C26.3862 31.2043 24.6391 32.0959 22.3044 32.0959C19.5935 32.0959 16.9959 30.2766 16.8877 26.6793H31.5452C31.9163 19.9999 28.3189 15.248 22.0828 15.248H22.0776ZM16.8825 23.4478C17.1815 19.9226 19.8872 18.696 22.0776 18.696C24.7885 18.696 26.9377 20.438 27.0511 23.4478H16.8825Z" fill="#ABDBFF"/>
<path d="M53.7274 23.4469C53.8408 17.0664 50.2022 15.0977 45.2287 15.0977C40.2553 15.0977 37.1372 17.6952 36.6167 21.5193L40.9201 21.9626C41.0335 19.5506 42.7033 18.3652 45.3009 18.3652C47.749 18.3652 49.3106 19.2929 49.3106 21.1122C49.3106 22.2254 48.8673 22.8542 47.048 23.1531L44.7082 23.4881C39.3997 24.1942 35.8745 25.7867 35.8745 29.7603C35.8745 33.3216 38.9153 35.7749 43.26 35.7749C46.1925 35.7749 48.5684 34.6616 49.7899 32.4352C49.862 33.8112 50.0115 34.44 50.1609 35.2904H54.2428C53.8717 33.6205 53.6501 30.9869 53.6501 28.4616C53.6501 26.6423 53.7222 24.4519 53.7222 23.452L53.7274 23.4469ZM49.3879 26.601C49.3879 30.7962 47.4964 32.4661 44.2289 32.4661C42.0024 32.4661 40.5542 31.3168 40.5542 29.6469C40.5542 27.8276 42.188 26.8999 45.8626 26.3433C46.9037 26.1578 48.053 26.0083 49.3879 25.6733V26.601Z" fill="#ABDBFF"/>
<path d="M68.8692 23.596L66.1583 23.0394C64.2308 22.6322 63.2618 21.8901 63.2618 20.6635C63.2618 19.4369 64.9677 18.6226 66.9726 18.6226C69.4567 18.6226 71.1266 19.6636 71.575 21.519L75.5847 20.7047C74.5848 17.1795 71.0957 15.252 67.2715 15.252C62.8186 15.252 59.1078 17.4423 59.1078 20.8903C59.1078 24.3382 61.7054 25.9359 65.1584 26.6419L68.1631 27.2707C70.2762 27.7139 71.7244 28.42 71.7244 29.9404C71.7244 31.4608 70.0907 32.4245 67.6426 32.4245C64.8234 32.4245 63.2618 31.1258 62.8186 28.7138L58.7007 29.5693C59.4068 33.1306 62.6331 35.7694 67.4983 35.7694C72.3635 35.7694 76.033 33.5068 76.033 29.425C76.033 25.6421 72.8789 24.4155 68.8692 23.596Z" fill="#ABDBFF"/>
<path d="M89.9487 15.248C84.1609 15.248 80.2646 19.4433 80.2646 25.3444C80.2646 31.2456 83.6765 35.7706 90.2116 35.7706C94.9995 35.7706 97.932 33.2813 99.0813 30.0911L95.0355 29.2768C94.2573 31.2043 92.5102 32.0959 90.1755 32.0959C87.4646 32.0959 84.867 30.2766 84.7588 26.6793H99.4163C99.7874 19.9999 96.19 15.248 89.9539 15.248H89.9487ZM84.7485 23.4478C85.0474 19.9226 87.7532 18.696 89.9436 18.696C92.6545 18.696 94.8036 20.438 94.917 23.4478H84.7485Z" fill="#ABDBFF"/>
<path d="M106.843 32.0586H103.616V35.2849H106.843V32.0586Z" fill="#ABDBFF"/>
</g>
<defs>
<clipPath id="clip0_1_1238">
<rect width="112.75" height="51.7033" fill="white" transform="translate(0.369629 0.791016)"/>
</clipPath>
</defs>
</svg>
