<svg width="14" height="14" viewBox="0 0 14 14" fill="none" xmlns="http://www.w3.org/2000/svg">
<path d="M6.96996 5.97505V8.5633H10.564C10.2295 10.2081 8.82921 11.1531 6.96996 11.1531C4.80437 11.1232 3.06446 9.35922 3.06446 7.19343C3.06446 5.02763 4.80437 3.26361 6.96996 3.2338C7.87012 3.23272 8.74256 3.54511 9.43746 4.1173L11.3875 2.1673C9.15066 0.200855 5.88396 -0.05207 3.37113 1.54664C0.858294 3.14534 -0.296771 6.21146 0.536648 9.07077C1.37007 11.9301 3.99167 13.8954 6.96996 13.8936C10.3202 13.8936 13.3667 11.4568 13.3667 7.19305C13.3615 6.78253 13.3112 6.37382 13.2167 5.9743L6.96996 5.97505Z" fill="white"/>
</svg>
