<svg width="30" height="30" viewBox="0 0 30 30" fill="none" xmlns="http://www.w3.org/2000/svg">
<path d="M15.0194 2.84348C18.9022 2.84348 19.3621 2.86051 20.8891 2.92863C22.3082 2.99107 23.0746 3.22949 23.5855 3.42817C24.261 3.6893 24.7492 4.00719 25.2544 4.51241C25.7653 5.0233 26.0775 5.50581 26.3386 6.18133C26.5373 6.69223 26.7757 7.46425 26.8382 8.87772C26.9063 10.4104 26.9233 10.8702 26.9233 14.7473C26.9233 18.6301 26.9063 19.09 26.8382 20.617C26.7757 22.0361 26.5373 22.8025 26.3386 23.3134C26.0775 23.9889 25.7596 24.4771 25.2544 24.9823C24.7435 25.4932 24.261 25.8054 23.5855 26.0665C23.0746 26.2652 22.3025 26.5036 20.8891 26.5661C19.3564 26.6342 18.8966 26.6512 15.0194 26.6512C11.1366 26.6512 10.6768 26.6342 9.14982 26.5661C7.73067 26.5036 6.96432 26.2652 6.45343 26.0665C5.77791 25.8054 5.28972 25.4875 4.7845 24.9823C4.27361 24.4714 3.96139 23.9889 3.70027 23.3134C3.50159 22.8025 3.26317 22.0304 3.20073 20.617C3.13261 19.0843 3.11558 18.6245 3.11558 14.7473C3.11558 10.8645 3.13261 10.4047 3.20073 8.87772C3.26317 7.45857 3.50159 6.69223 3.70027 6.18133C3.96139 5.50581 4.27928 5.01763 4.7845 4.51241C5.2954 4.00151 5.77791 3.6893 6.45343 3.42817C6.96432 3.22949 7.73634 2.99107 9.14982 2.92863C10.6768 2.86051 11.1366 2.84348 15.0194 2.84348ZM15.0194 0.226562C11.0742 0.226562 10.5803 0.243592 9.03061 0.311712C7.48657 0.379831 6.42504 0.629602 5.50543 0.987229C4.54608 1.36189 3.73433 1.85575 2.92825 2.66751C2.11649 3.47359 1.62263 4.28534 1.24797 5.23901C0.890344 6.1643 0.640573 7.22015 0.572454 8.76419C0.504335 10.3196 0.487305 10.8134 0.487305 14.7587C0.487305 18.7039 0.504335 19.1978 0.572454 20.7475C0.640573 22.2916 0.890344 23.3531 1.24797 24.2727C1.62263 25.2321 2.11649 26.0438 2.92825 26.8499C3.73433 27.656 4.54608 28.1555 5.49976 28.5245C6.42504 28.8821 7.48089 29.1319 9.02493 29.2C10.5746 29.2681 11.0685 29.2852 15.0138 29.2852C18.959 29.2852 19.4529 29.2681 21.0026 29.2C22.5466 29.1319 23.6082 28.8821 24.5278 28.5245C25.4814 28.1555 26.2932 27.656 27.0993 26.8499C27.9054 26.0438 28.4049 25.2321 28.7739 24.2784C29.1315 23.3531 29.3813 22.2972 29.4494 20.7532C29.5175 19.2035 29.5345 18.7096 29.5345 14.7644C29.5345 10.8191 29.5175 10.3253 29.4494 8.77555C29.3813 7.23151 29.1315 6.16998 28.7739 5.25037C28.4163 4.28534 27.9224 3.47359 27.1106 2.66751C26.3046 1.86143 25.4928 1.36189 24.5391 0.992905C23.6138 0.635279 22.558 0.385508 21.0139 0.317388C19.4586 0.243592 18.9647 0.226562 15.0194 0.226562Z" fill="white" fill-opacity="0.62"/>
</svg>
