<svg width="30" height="30" viewBox="0 0 30 30" fill="none" xmlns="http://www.w3.org/2000/svg">
<path d="M0.349609 29.2908L2.39259 21.8274C1.13192 19.6427 0.469499 17.1662 0.470711 14.6267C0.474344 6.68731 6.93509 0.226562 14.8733 0.226562C18.7255 0.227774 22.3416 1.72822 25.0615 4.45057C27.7802 7.17292 29.277 10.7914 29.2758 14.64C29.2722 22.5806 22.8114 29.0414 14.8733 29.0414C12.4634 29.0402 10.0886 28.4359 7.98503 27.2878L0.349609 29.2908ZM8.33865 24.6805C10.3683 25.8855 12.3059 26.6072 14.8684 26.6084C21.466 26.6084 26.8405 21.2388 26.8441 14.6376C26.8465 8.02305 21.4975 2.6607 14.8781 2.65827C8.27568 2.65827 2.90484 8.0279 2.90242 14.6279C2.90121 17.3224 3.69079 19.34 5.01685 21.4507L3.80705 25.8685L8.33865 24.6805ZM22.1284 18.0635C22.0388 17.9134 21.799 17.8238 21.4382 17.6433C21.0785 17.4629 19.3092 16.5922 18.9786 16.4723C18.6492 16.3524 18.4094 16.2918 18.1684 16.6527C17.9286 17.0124 17.2384 17.8238 17.0289 18.0635C16.8194 18.3033 16.6086 18.3336 16.249 18.1532C15.8893 17.9727 14.7292 17.5937 13.3547 16.3669C12.2853 15.4126 11.5624 14.2343 11.3529 13.8734C11.1434 13.5138 11.3311 13.3188 11.5103 13.1396C11.6726 12.9785 11.87 12.7194 12.0504 12.5086C12.2333 12.3003 12.2926 12.1502 12.4137 11.9092C12.5336 11.6694 12.4743 11.4587 12.3834 11.2783C12.2926 11.099 11.5733 9.32731 11.2741 8.60676C10.9811 7.90559 10.6844 8.00004 10.464 7.98914L9.7737 7.97704C9.53392 7.97704 9.14397 8.06665 8.81458 8.42753C8.48518 8.78841 7.55513 9.65792 7.55513 11.4296C7.55513 13.2013 8.84485 14.9125 9.02408 15.1523C9.20452 15.3921 11.5612 19.0275 15.1712 20.5861C16.0298 20.9567 16.7007 21.1783 17.2226 21.3442C18.0849 21.6179 18.8696 21.5791 19.4896 21.4871C20.1811 21.3841 21.6186 20.6164 21.9189 19.7759C22.2193 18.9343 22.2193 18.2137 22.1284 18.0635Z" fill="white" fill-opacity="0.62"/>
</svg>
