<svg width="102" height="97" viewBox="0 0 102 97" fill="none" xmlns="http://www.w3.org/2000/svg">
<rect y="0.765625" width="101.258" height="96.2208" rx="14" fill="#D9D9D9"/>
<path d="M77.3464 63.3346L69.1302 44.9514C66.3477 38.7147 61.2289 38.4633 57.7902 44.3982L52.8289 52.9737C50.3089 57.3243 45.6102 57.7015 42.3552 53.8035L41.7777 53.0994C38.3915 49.0254 33.614 49.5284 31.1727 54.1808L26.6577 62.8568C23.4815 68.8924 28.0752 76.0092 35.1102 76.0092H68.6052C75.4302 76.0092 80.0239 69.345 77.3464 63.3346Z" fill="white" fill-opacity="0.81"/>
<path d="M38.7324 40.8017C43.0817 40.8017 46.6074 37.424 46.6074 33.2573C46.6074 29.0906 43.0817 25.7129 38.7324 25.7129C34.3832 25.7129 30.8574 29.0906 30.8574 33.2573C30.8574 37.424 34.3832 40.8017 38.7324 40.8017Z" fill="white" fill-opacity="0.81"/>
</svg>
