<svg width="17" height="17" viewBox="0 0 17 17" fill="none" xmlns="http://www.w3.org/2000/svg">
<g clip-path="url(#clip0_1_1391)">
<path d="M8.68945 8.09375C9.48058 8.09375 10.2539 7.85916 10.9117 7.41963C11.5695 6.9801 12.0822 6.35539 12.385 5.62449C12.6877 4.89358 12.7669 4.08931 12.6126 3.31339C12.4583 2.53747 12.0773 1.82473 11.5179 1.26532C10.9585 0.705915 10.2457 0.324952 9.46981 0.170611C8.69389 0.0162698 7.88962 0.0954831 7.15872 0.398234C6.42782 0.700984 5.8031 1.21367 5.36357 1.87147C4.92405 2.52927 4.68945 3.30263 4.68945 4.09375C4.69051 5.15429 5.11228 6.17109 5.8622 6.92101C6.61211 7.67093 7.62891 8.09269 8.68945 8.09375ZM8.68945 1.42709C9.21687 1.42709 9.73244 1.58348 10.171 1.8765C10.6095 2.16952 10.9513 2.58599 11.1531 3.07326C11.355 3.56053 11.4078 4.09671 11.3049 4.61399C11.202 5.13128 10.948 5.60643 10.5751 5.97937C10.2021 6.35231 9.72698 6.60629 9.20969 6.70918C8.69241 6.81207 8.15623 6.75926 7.66896 6.55743C7.18169 6.3556 6.76522 6.0138 6.4722 5.57527C6.17918 5.13674 6.02279 4.62117 6.02279 4.09375C6.02279 3.38651 6.30374 2.70823 6.80384 2.20813C7.30393 1.70804 7.98221 1.42709 8.68945 1.42709Z" fill="#6FB7ED"/>
<path d="M8.68945 9.42773C7.0987 9.4295 5.5736 10.0622 4.44876 11.187C3.32393 12.3119 2.69122 13.837 2.68945 15.4277C2.68945 15.6045 2.75969 15.7741 2.88472 15.8991C3.00974 16.0242 3.17931 16.0944 3.35612 16.0944C3.53293 16.0944 3.7025 16.0242 3.82752 15.8991C3.95255 15.7741 4.02279 15.6045 4.02279 15.4277C4.02279 14.1901 4.51445 13.0031 5.38962 12.1279C6.26479 11.2527 7.45178 10.7611 8.68945 10.7611C9.92713 10.7611 11.1141 11.2527 11.9893 12.1279C12.8645 13.0031 13.3561 14.1901 13.3561 15.4277C13.3561 15.6045 13.4264 15.7741 13.5514 15.8991C13.6764 16.0242 13.846 16.0944 14.0228 16.0944C14.1996 16.0944 14.3692 16.0242 14.4942 15.8991C14.6192 15.7741 14.6895 15.6045 14.6895 15.4277C14.6877 13.837 14.055 12.3119 12.9301 11.187C11.8053 10.0622 10.2802 9.4295 8.68945 9.42773Z" fill="#6FB7ED"/>
</g>
<defs>
<clipPath id="clip0_1_1391">
<rect width="16" height="16" fill="white" transform="translate(0.689453 0.09375)"/>
</clipPath>
</defs>
</svg>
